<svg width="24" height="24" viewBox="0 0 24 24" fill="none" xmlns="http://www.w3.org/2000/svg">
<path d="M6 1V3H5C3.89 3 3 3.89 3 5V19C3 19.5304 3.21071 20.0391 3.58579 20.4142C3.96086 20.7893 4.46957 21 5 21H19C20.11 21 21 20.11 21 19V5C21 4.46957 20.7893 3.96086 20.4142 3.58579C20.0391 3.21071 19.5304 3 19 3H18V1H16V3H8V1H6ZM5 8H19V19H5V8Z" fill="black"/>
<path fill-rule="evenodd" clip-rule="evenodd" d="M15.967 12.956C16.0914 13.9776 15.8619 15.0111 15.3166 15.884C14.7713 16.757 13.9433 17.4166 12.9705 17.7529C11.9978 18.0893 10.9391 18.082 9.97103 17.7323C9.00298 17.3827 8.18406 16.7117 7.65082 15.8314C7.59279 15.7357 7.57515 15.6208 7.60179 15.5121C7.62842 15.4034 7.69715 15.3098 7.79286 15.2517C7.88856 15.1937 8.0034 15.1761 8.11211 15.2027C8.22081 15.2293 8.31449 15.2981 8.37252 15.3938C8.65976 15.8681 9.05113 16.2708 9.517 16.5715C9.98287 16.8723 10.511 17.0631 11.0616 17.1296C11.6121 17.1961 12.1705 17.1365 12.6946 16.9554C13.2187 16.7742 13.6947 16.4762 14.0866 16.084C14.4785 15.6917 14.7761 15.2155 14.9568 14.6912C15.1375 14.167 15.1966 13.6086 15.1296 13.0581C15.0626 12.5077 14.8713 11.9797 14.5701 11.5141C14.2689 11.0486 13.8658 10.6576 13.3912 10.3708C13.2955 10.3129 13.2266 10.2193 13.1998 10.1107C13.173 10.002 13.1905 9.88719 13.2484 9.79142C13.3062 9.69564 13.3998 9.62678 13.5085 9.59999C13.6171 9.5732 13.732 9.59066 13.8277 9.64854C14.4118 10.0016 14.9079 10.4828 15.2785 11.0558C15.6491 11.6288 15.8845 12.2785 15.967 12.956ZM12.0626 9.56248C12.0626 9.71166 12.0033 9.85473 11.8978 9.96022C11.7923 10.0657 11.6493 10.125 11.5001 10.125C11.3509 10.125 11.2078 10.0657 11.1023 9.96022C10.9968 9.85473 10.9376 9.71166 10.9376 9.56248C10.9376 9.4133 10.9968 9.27023 11.1023 9.16475C11.2078 9.05926 11.3509 9 11.5001 9C11.6493 9 11.7923 9.05926 11.8978 9.16475C12.0033 9.27023 12.0626 9.4133 12.0626 9.56248ZM8.57728 11.8124C8.61479 11.7484 8.63928 11.6776 8.64933 11.6041C8.65938 11.5307 8.6548 11.4559 8.63583 11.3842C8.61687 11.3125 8.58391 11.2452 8.53885 11.1863C8.49379 11.1273 8.43751 11.0779 8.37327 11.0408C8.30903 11.0037 8.23808 10.9797 8.16451 10.9702C8.09095 10.9606 8.01622 10.9657 7.94463 10.9851C7.87303 11.0045 7.80599 11.038 7.74736 11.0834C7.68874 11.1289 7.63968 11.1855 7.60301 11.2499C7.52959 11.3791 7.51023 11.532 7.54915 11.6753C7.58807 11.8187 7.68211 11.9408 7.81075 12.0151C7.93939 12.0893 8.09218 12.1097 8.23579 12.0717C8.37939 12.0338 8.50215 11.9406 8.57728 11.8124ZM7.56251 12.9374C7.7117 12.9374 7.85477 12.9967 7.96026 13.1021C8.06575 13.2076 8.12502 13.3507 8.12502 13.4999C8.12502 13.6491 8.06575 13.7921 7.96026 13.8976C7.85477 14.0031 7.7117 14.0624 7.56251 14.0624C7.41332 14.0624 7.27025 14.0031 7.16476 13.8976C7.05926 13.7921 7 13.6491 7 13.4999C7 13.3507 7.05926 13.2076 7.16476 13.1021C7.27025 12.9967 7.41332 12.9374 7.56251 12.9374ZM9.81255 10.5772C9.87704 10.5405 9.93364 10.4915 9.97909 10.4329C10.0245 10.3742 10.0579 10.3072 10.0774 10.2356C10.0968 10.164 10.1019 10.0893 10.0923 10.0157C10.0828 9.94217 10.0588 9.87122 10.0217 9.80698C9.98458 9.74274 9.93514 9.68647 9.87621 9.64141C9.81728 9.59635 9.75002 9.56339 9.6783 9.54443C9.60658 9.52547 9.53182 9.52088 9.45832 9.53093C9.38482 9.54098 9.31404 9.56547 9.25004 9.60298C9.1219 9.6781 9.02867 9.80086 8.9907 9.94446C8.95273 10.0881 8.97311 10.2408 9.04738 10.3695C9.12165 10.4981 9.24379 10.5921 9.38714 10.6311C9.53049 10.67 9.68342 10.6506 9.81255 10.5772Z" fill="black"/>
</svg>
