<svg width="24" height="24" viewBox="0 0 24 24" fill="none" xmlns="http://www.w3.org/2000/svg">
<path d="M11.5 21H6C5.46957 21 4.96086 20.7893 4.58579 20.4142C4.21071 20.0391 4 19.5304 4 19V7C4 6.46957 4.21071 5.96086 4.58579 5.58579C4.96086 5.21071 5.46957 5 6 5H18C18.5304 5 19.0391 5.21071 19.4142 5.58579C19.7893 5.96086 20 6.46957 20 7V13M16 3V7M8 3V7M4 11H20M15 19L17 21L21 17" stroke="black" stroke-width="2" stroke-linecap="round" stroke-linejoin="round"/>
<path d="M5.5 14.5H6.5" stroke="black"/>
<path d="M7.5 14.5H8.5" stroke="black"/>
<path d="M9.5 14.5H10.5" stroke="black"/>
<path d="M11.5 14.5H12.5" stroke="black"/>
<path d="M13.5 14.5H14.5" stroke="black"/>
<path d="M15.5 14.5H16.5" stroke="black"/>
<path d="M17.5 14.5H18.5" stroke="black"/>
<path d="M17.5 16.5H18.5" stroke="black"/>
<path d="M15.5 16.5H16.5" stroke="black"/>
<path d="M13.5 16.5H14.5" stroke="black"/>
<path d="M11.5 16.5H12.5" stroke="black"/>
<path d="M9.5 16.5H10.5" stroke="black"/>
<path d="M7.5 16.5H8.5" stroke="black"/>
<path d="M5.5 16.5H6.5" stroke="black"/>
</svg>
