<svg width="24" height="24" viewBox="0 0 24 24" fill="none" xmlns="http://www.w3.org/2000/svg">
<path d="M10 20.35V14.65L11.4 10.65C11.4833 10.4667 11.6043 10.3127 11.763 10.188C11.9217 10.0633 12.1173 10.0007 12.35 10H19.65C19.8833 10 20.0793 10.0627 20.238 10.188C20.3967 10.3133 20.5173 10.4673 20.6 10.65L22 14.65V20.35C22 20.5333 21.9377 20.6877 21.813 20.813C21.6883 20.9383 21.534 21.0007 21.35 21H20.65C20.4667 21 20.3127 20.9377 20.188 20.813C20.0633 20.6883 20.0007 20.534 20 20.35V19.5H12V20.35C12 20.5333 11.9377 20.6877 11.813 20.813C11.6883 20.9383 11.534 21.0007 11.35 21H10.65C10.4667 21 10.3127 20.9377 10.188 20.813C10.0633 20.6883 10.0007 20.534 10 20.35ZM12 13.5H20L19.3 11.5H12.7L12 13.5ZM13 17.5C13.2833 17.5 13.521 17.404 13.713 17.212C13.905 17.02 14.0007 16.7827 14 16.5C14 16.2167 13.904 15.9793 13.712 15.788C13.52 15.5967 13.2827 15.5007 13 15.5C12.7167 15.5 12.4793 15.596 12.288 15.788C12.0967 15.98 12.0007 16.2173 12 16.5C12 16.7833 12.096 17.021 12.288 17.213C12.48 17.405 12.7173 17.5007 13 17.5ZM19 17.5C19.2833 17.5 19.521 17.404 19.713 17.212C19.905 17.02 20.0007 16.7827 20 16.5C20 16.2167 19.904 15.9793 19.712 15.788C19.52 15.5967 19.2827 15.5007 19 15.5C18.7167 15.5 18.4793 15.596 18.288 15.788C18.0967 15.98 18.0007 16.2173 18 16.5C18 16.7833 18.096 17.021 18.288 17.213C18.48 17.405 18.7173 17.5007 19 17.5ZM4 21V20L5 19C4.16667 19 3.45833 18.7083 2.875 18.125C2.29167 17.5417 2 16.8333 2 16V8C2 6.9 2.49167 6.125 3.475 5.675C4.45833 5.225 6.13333 5 8.5 5C10.9667 5 12.6667 5.21667 13.6 5.65C14.5333 6.08333 15 6.86667 15 8V9H13V8H4V14H9V21H4ZM5 17C5.28333 17 5.521 16.904 5.713 16.712C5.905 16.52 6.00067 16.2827 6 16C6 15.7167 5.904 15.4793 5.712 15.288C5.52 15.0967 5.28267 15.0007 5 15C4.71667 15 4.47933 15.096 4.288 15.288C4.09667 15.48 4.00067 15.7173 4 16C4 16.2833 4.096 16.521 4.288 16.713C4.48 16.905 4.71733 17.0007 5 17Z" fill="black"/>
<mask id="path-2-inside-1_1317_2716" fill="white">
<path fill-rule="evenodd" clip-rule="evenodd" d="M16 12C18.7614 12 21 9.76142 21 7C21 4.23858 18.7614 2 16 2C13.2386 2 11 4.23858 11 7C11 9.76142 13.2386 12 16 12ZM18.4685 8.35424C18.8926 7.67529 19.0711 6.87149 18.9743 6.07685C18.9102 5.54998 18.7271 5.04459 18.4388 4.59893C18.1506 4.15326 17.7647 3.77898 17.3105 3.50442C17.236 3.4594 17.1466 3.44582 17.0621 3.46666C16.9776 3.4875 16.9049 3.54105 16.8598 3.61555C16.8148 3.69004 16.8012 3.77936 16.8221 3.86387C16.8429 3.94837 16.8965 4.02114 16.971 4.06616C17.3401 4.28923 17.6536 4.59333 17.8879 4.95544C18.1221 5.31756 18.2709 5.72821 18.323 6.15632C18.3751 6.58443 18.3292 7.01879 18.1886 7.42652C18.0481 7.83425 17.8166 8.20468 17.5118 8.50977C17.207 8.81486 16.8367 9.04662 16.4291 9.18752C16.0215 9.32841 15.5872 9.37476 15.159 9.32304C14.7308 9.27131 14.32 9.12289 13.9577 8.88898C13.5953 8.65507 13.2909 8.34182 13.0675 7.97292C13.0224 7.89849 12.9495 7.84504 12.865 7.82432C12.7804 7.8036 12.6911 7.81732 12.6167 7.86246C12.5422 7.90759 12.4888 7.98045 12.4681 8.06499C12.4473 8.14954 12.4611 8.23885 12.5062 8.31329C12.9209 8.998 13.5579 9.51984 14.3108 9.79182C15.0637 10.0638 15.8871 10.0694 16.6437 9.80784C17.4003 9.54624 18.0444 9.03319 18.4685 8.35424ZM15.8094 3.74684C15.8915 3.66479 15.9376 3.55352 15.9376 3.43749C15.9376 3.32146 15.8915 3.21018 15.8094 3.12814C15.7274 3.04609 15.6161 3 15.5001 3C15.384 3 15.2727 3.04609 15.1907 3.12814C15.1086 3.21018 15.0626 3.32146 15.0626 3.43749C15.0626 3.55352 15.1086 3.66479 15.1907 3.74684C15.2727 3.82888 15.384 3.87498 15.5001 3.87498C15.6161 3.87498 15.7274 3.82888 15.8094 3.74684ZM13.2828 5.02545C13.275 5.08261 13.256 5.13766 13.2268 5.18744C13.1683 5.2871 13.0729 5.35961 12.9612 5.38914C12.8495 5.41867 12.7306 5.40282 12.6306 5.34505C12.5305 5.28729 12.4574 5.1923 12.4271 5.08081C12.3968 4.96932 12.4119 4.85038 12.469 4.74995C12.4975 4.69979 12.5357 4.65577 12.5813 4.62042C12.6269 4.58508 12.679 4.55909 12.7347 4.54398C12.7904 4.52886 12.8485 4.52491 12.9057 4.53234C12.9629 4.53978 13.0181 4.55846 13.0681 4.58731C13.1181 4.61616 13.1618 4.6546 13.1969 4.70044C13.2319 4.74627 13.2576 4.79858 13.2723 4.85436C13.2871 4.91014 13.2906 4.96828 13.2828 5.02545ZM12.7469 6.19055C12.6648 6.10851 12.5535 6.06241 12.4375 6.06241C12.3215 6.06241 12.2102 6.10851 12.1281 6.19055C12.0461 6.2726 12 6.38387 12 6.4999C12 6.61593 12.0461 6.72721 12.1281 6.80925C12.2102 6.8913 12.3215 6.93739 12.4375 6.93739C12.5535 6.93739 12.6648 6.8913 12.7469 6.80925C12.8289 6.72721 12.875 6.61593 12.875 6.4999C12.875 6.38387 12.8289 6.2726 12.7469 6.19055ZM14.3171 4.11444C14.2817 4.16004 14.2377 4.1982 14.1875 4.22672C14.0871 4.28381 13.9682 4.29887 13.8567 4.2686C13.7452 4.23834 13.6502 4.1652 13.5924 4.06515C13.5346 3.9651 13.5188 3.84627 13.5483 3.73458C13.5779 3.62289 13.6504 3.52741 13.75 3.46899C13.7998 3.43981 13.8549 3.42076 13.912 3.41295C13.9692 3.40513 14.0273 3.4087 14.0831 3.42344C14.1389 3.43819 14.1912 3.46383 14.2371 3.49887C14.2829 3.53392 14.3213 3.57769 14.3502 3.62765C14.379 3.67762 14.3977 3.7328 14.4052 3.79001C14.4126 3.84722 14.4086 3.90535 14.3935 3.96103C14.3784 4.01671 14.3524 4.06885 14.3171 4.11444Z"/>
</mask>
<path fill-rule="evenodd" clip-rule="evenodd" d="M16 12C18.7614 12 21 9.76142 21 7C21 4.23858 18.7614 2 16 2C13.2386 2 11 4.23858 11 7C11 9.76142 13.2386 12 16 12ZM18.4685 8.35424C18.8926 7.67529 19.0711 6.87149 18.9743 6.07685C18.9102 5.54998 18.7271 5.04459 18.4388 4.59893C18.1506 4.15326 17.7647 3.77898 17.3105 3.50442C17.236 3.4594 17.1466 3.44582 17.0621 3.46666C16.9776 3.4875 16.9049 3.54105 16.8598 3.61555C16.8148 3.69004 16.8012 3.77936 16.8221 3.86387C16.8429 3.94837 16.8965 4.02114 16.971 4.06616C17.3401 4.28923 17.6536 4.59333 17.8879 4.95544C18.1221 5.31756 18.2709 5.72821 18.323 6.15632C18.3751 6.58443 18.3292 7.01879 18.1886 7.42652C18.0481 7.83425 17.8166 8.20468 17.5118 8.50977C17.207 8.81486 16.8367 9.04662 16.4291 9.18752C16.0215 9.32841 15.5872 9.37476 15.159 9.32304C14.7308 9.27131 14.32 9.12289 13.9577 8.88898C13.5953 8.65507 13.2909 8.34182 13.0675 7.97292C13.0224 7.89849 12.9495 7.84504 12.865 7.82432C12.7804 7.8036 12.6911 7.81732 12.6167 7.86246C12.5422 7.90759 12.4888 7.98045 12.4681 8.06499C12.4473 8.14954 12.4611 8.23885 12.5062 8.31329C12.9209 8.998 13.5579 9.51984 14.3108 9.79182C15.0637 10.0638 15.8871 10.0694 16.6437 9.80784C17.4003 9.54624 18.0444 9.03319 18.4685 8.35424ZM15.8094 3.74684C15.8915 3.66479 15.9376 3.55352 15.9376 3.43749C15.9376 3.32146 15.8915 3.21018 15.8094 3.12814C15.7274 3.04609 15.6161 3 15.5001 3C15.384 3 15.2727 3.04609 15.1907 3.12814C15.1086 3.21018 15.0626 3.32146 15.0626 3.43749C15.0626 3.55352 15.1086 3.66479 15.1907 3.74684C15.2727 3.82888 15.384 3.87498 15.5001 3.87498C15.6161 3.87498 15.7274 3.82888 15.8094 3.74684ZM13.2828 5.02545C13.275 5.08261 13.256 5.13766 13.2268 5.18744C13.1683 5.2871 13.0729 5.35961 12.9612 5.38914C12.8495 5.41867 12.7306 5.40282 12.6306 5.34505C12.5305 5.28729 12.4574 5.1923 12.4271 5.08081C12.3968 4.96932 12.4119 4.85038 12.469 4.74995C12.4975 4.69979 12.5357 4.65577 12.5813 4.62042C12.6269 4.58508 12.679 4.55909 12.7347 4.54398C12.7904 4.52886 12.8485 4.52491 12.9057 4.53234C12.9629 4.53978 13.0181 4.55846 13.0681 4.58731C13.1181 4.61616 13.1618 4.6546 13.1969 4.70044C13.2319 4.74627 13.2576 4.79858 13.2723 4.85436C13.2871 4.91014 13.2906 4.96828 13.2828 5.02545ZM12.7469 6.19055C12.6648 6.10851 12.5535 6.06241 12.4375 6.06241C12.3215 6.06241 12.2102 6.10851 12.1281 6.19055C12.0461 6.2726 12 6.38387 12 6.4999C12 6.61593 12.0461 6.72721 12.1281 6.80925C12.2102 6.8913 12.3215 6.93739 12.4375 6.93739C12.5535 6.93739 12.6648 6.8913 12.7469 6.80925C12.8289 6.72721 12.875 6.61593 12.875 6.4999C12.875 6.38387 12.8289 6.2726 12.7469 6.19055ZM14.3171 4.11444C14.2817 4.16004 14.2377 4.1982 14.1875 4.22672C14.0871 4.28381 13.9682 4.29887 13.8567 4.2686C13.7452 4.23834 13.6502 4.1652 13.5924 4.06515C13.5346 3.9651 13.5188 3.84627 13.5483 3.73458C13.5779 3.62289 13.6504 3.52741 13.75 3.46899C13.7998 3.43981 13.8549 3.42076 13.912 3.41295C13.9692 3.40513 14.0273 3.4087 14.0831 3.42344C14.1389 3.43819 14.1912 3.46383 14.2371 3.49887C14.2829 3.53392 14.3213 3.57769 14.3502 3.62765C14.379 3.67762 14.3977 3.7328 14.4052 3.79001C14.4126 3.84722 14.4086 3.90535 14.3935 3.96103C14.3784 4.01671 14.3524 4.06885 14.3171 4.11444Z" fill="black"/>
<path d="M18.9743 6.07685L17.9816 6.19766L17.9816 6.19779L18.9743 6.07685ZM18.4388 4.59893L19.2785 4.05583L19.2785 4.05583L18.4388 4.59893ZM17.3105 3.50442L17.8277 2.64861L17.8277 2.64857L17.3105 3.50442ZM17.0621 3.46666L16.8227 2.49574L16.8227 2.49574L17.0621 3.46666ZM16.8598 3.61555L17.7157 4.1328L17.7157 4.1328L16.8598 3.61555ZM16.8221 3.86387L17.793 3.62443L17.793 3.62442L16.8221 3.86387ZM16.971 4.06616L16.4537 4.92201L16.4537 4.92201L16.971 4.06616ZM18.323 6.15632L19.3157 6.0355L19.3157 6.0355L18.323 6.15632ZM17.5118 8.50977L16.8044 7.80296L16.8044 7.80296L17.5118 8.50977ZM15.159 9.32304L15.0391 10.3158L15.0391 10.3158L15.159 9.32304ZM13.0675 7.97292L13.9229 7.4549L13.9226 7.4544L13.0675 7.97292ZM12.865 7.82432L13.103 6.85305L13.1029 6.85305L12.865 7.82432ZM12.6167 7.86246L13.1352 8.71754L13.1352 8.71754L12.6167 7.86246ZM12.4681 8.06499L11.4968 7.827L11.4968 7.827L12.4681 8.06499ZM12.5062 8.31329L13.3615 7.7952L13.3613 7.79476L12.5062 8.31329ZM16.6437 9.80784L16.9705 10.7529L16.9705 10.7529L16.6437 9.80784ZM13.2268 5.18744L14.0894 5.6932L14.0894 5.6932L13.2268 5.18744ZM13.2828 5.02545L12.292 4.88997L12.292 4.88997L13.2828 5.02545ZM12.9612 5.38914L12.7056 4.42235L12.7056 4.42235L12.9612 5.38914ZM12.6306 5.34505L13.1306 4.47903L13.1306 4.47902L12.6306 5.34505ZM12.4271 5.08081L13.3922 4.81879L13.3922 4.81879L12.4271 5.08081ZM12.469 4.74995L11.5997 4.25568L11.5997 4.25568L12.469 4.74995ZM12.5813 4.62042L11.9686 3.83009L11.9686 3.83009L12.5813 4.62042ZM12.9057 4.53234L13.0346 3.54068L13.0346 3.54068L12.9057 4.53234ZM13.1969 4.70044L13.9912 4.09299L13.9912 4.09298L13.1969 4.70044ZM13.2723 4.85436L14.2391 4.59875L14.2391 4.59874L13.2723 4.85436ZM12.7469 6.19055L12.0398 6.89767L12.0398 6.89767L12.7469 6.19055ZM12.1281 6.19055L12.8352 6.89767L12.8352 6.89767L12.1281 6.19055ZM12.1281 6.80925L12.8352 6.10213L12.8352 6.10213L12.1281 6.80925ZM12.7469 6.80925L12.0398 6.10213L12.0398 6.10213L12.7469 6.80925ZM14.1875 4.22672L14.6818 5.09604L14.6818 5.09604L14.1875 4.22672ZM14.3171 4.11444L15.1074 4.72715L15.1074 4.72715L14.3171 4.11444ZM13.5924 4.06515L14.4584 3.56512L14.4584 3.56512L13.5924 4.06515ZM13.75 3.46899L13.2443 2.60629L13.2443 2.60629L13.75 3.46899ZM13.912 3.41295L14.0475 4.40373L14.0475 4.40373L13.912 3.41295ZM14.0831 3.42344L13.8275 4.39023L13.8275 4.39023L14.0831 3.42344ZM14.2371 3.49887L14.8445 2.70449L14.8445 2.70449L14.2371 3.49887ZM14.3935 3.96103L15.3586 4.22305L15.3586 4.22304L14.3935 3.96103ZM20 7C20 9.20914 18.2091 11 16 11V13C19.3137 13 22 10.3137 22 7H20ZM16 3C18.2091 3 20 4.79086 20 7H22C22 3.68629 19.3137 1 16 1V3ZM12 7C12 4.79086 13.7909 3 16 3V1C12.6863 1 10 3.68629 10 7H12ZM16 11C13.7909 11 12 9.20914 12 7H10C10 10.3137 12.6863 13 16 13V11ZM17.9816 6.19779C18.0508 6.76537 17.9233 7.3395 17.6203 7.82445L19.3166 8.88403C19.8619 8.01109 20.0914 6.97761 19.967 5.95591L17.9816 6.19779ZM17.5991 5.14202C17.805 5.46035 17.9358 5.82133 17.9816 6.19766L19.967 5.95604C19.8845 5.27863 19.6491 4.62883 19.2785 4.05583L17.5991 5.14202ZM16.7932 4.36024C17.1176 4.55635 17.3932 4.82369 17.5991 5.14202L19.2785 4.05583C18.9079 3.48282 18.4118 3.00162 17.8277 2.64861L16.7932 4.36024ZM17.3016 4.43758C17.1286 4.48023 16.9457 4.45243 16.7932 4.36027L17.8277 2.64857C17.5262 2.46638 17.1647 2.41141 16.8227 2.49574L17.3016 4.43758ZM17.7157 4.1328C17.6235 4.2853 17.4745 4.39492 17.3016 4.43758L16.8227 2.49574C16.4807 2.58008 16.1862 2.79681 16.004 3.09829L17.7157 4.1328ZM17.793 3.62442C17.8356 3.79743 17.8078 3.9803 17.7157 4.1328L16.004 3.09829C15.8218 3.39977 15.7668 3.76129 15.8512 4.10331L17.793 3.62442ZM17.4882 3.21031C17.6407 3.30246 17.7503 3.45142 17.793 3.62443L15.8512 4.1033C15.9355 4.44532 16.1523 4.73982 16.4537 4.92201L17.4882 3.21031ZM18.7275 4.41231C18.4109 3.92285 17.9871 3.51181 17.4882 3.2103L16.4537 4.92201C16.6931 5.06664 16.8963 5.2638 17.0482 5.49858L18.7275 4.41231ZM19.3157 6.0355C19.2452 5.45684 19.0441 4.90177 18.7275 4.41231L17.0482 5.49858C17.2001 5.73335 17.2966 5.99959 17.3303 6.27715L19.3157 6.0355ZM19.134 7.75239C19.324 7.20127 19.3861 6.61417 19.3157 6.0355L17.3303 6.27715C17.3641 6.5547 17.3343 6.83631 17.2432 7.10065L19.134 7.75239ZM18.2192 9.21657C18.6312 8.8042 18.9441 8.30351 19.134 7.75239L17.2432 7.10065C17.1521 7.36499 17.002 7.60516 16.8044 7.80296L18.2192 9.21657ZM16.7558 10.1326C17.3068 9.94221 17.8072 9.62895 18.2192 9.21657L16.8044 7.80296C16.6068 8.00077 16.3667 8.15103 16.1024 8.24239L16.7558 10.1326ZM15.0391 10.3158C15.6178 10.3857 16.2049 10.3231 16.7558 10.1326L16.1024 8.24239C15.8381 8.33374 15.5565 8.36379 15.2789 8.33025L15.0391 10.3158ZM13.4153 9.72913C13.9051 10.0453 14.4603 10.2459 15.0391 10.3158L15.2789 8.33025C15.0013 8.29672 14.7349 8.20048 14.5 8.04883L13.4153 9.72913ZM12.2122 8.49094C12.5141 8.98957 12.9256 9.41298 13.4153 9.72913L14.5 8.04883C14.2651 7.89717 14.0677 7.69407 13.9229 7.4549L12.2122 8.49094ZM12.627 8.79559C12.454 8.75319 12.3048 8.6438 12.2125 8.49145L13.9226 7.4544C13.7399 7.15318 13.4451 6.93688 13.103 6.85305L12.627 8.79559ZM13.1352 8.71754C12.9828 8.80991 12.8 8.83798 12.627 8.79559L13.1029 6.85305C12.7608 6.76922 12.3994 6.82473 12.0982 7.00737L13.1352 8.71754ZM13.4393 8.30299C13.3969 8.47605 13.2875 8.62517 13.1352 8.71754L12.0982 7.00737C11.797 7.19002 11.5806 7.48484 11.4968 7.827L13.4393 8.30299ZM13.3613 7.79476C13.4536 7.94711 13.4817 8.12993 13.4393 8.30299L11.4968 7.827C11.413 8.16915 11.4685 8.5306 11.6511 8.83181L13.3613 7.79476ZM14.6505 8.85129C14.1127 8.65702 13.6578 8.28427 13.3615 7.7952L11.6509 8.83137C12.1841 9.71172 13.003 10.3827 13.9711 10.7323L14.6505 8.85129ZM16.317 8.86274C15.7765 9.0496 15.1884 9.04556 14.6505 8.85129L13.9711 10.7323C14.9391 11.082 15.9978 11.0893 16.9705 10.7529L16.317 8.86274ZM17.6203 7.82445C17.3174 8.30941 16.8574 8.67588 16.317 8.86274L16.9705 10.7529C17.9433 10.4166 18.7713 9.75697 19.3166 8.88403L17.6203 7.82445ZM14.9376 3.43749C14.9376 3.28828 14.9968 3.1452 15.1023 3.03972L16.5165 4.45396C16.7861 4.18438 16.9376 3.81875 16.9376 3.43749H14.9376ZM15.1023 3.83526C14.9968 3.72977 14.9376 3.58669 14.9376 3.43749H16.9376C16.9376 3.05622 16.7861 2.69059 16.5165 2.42101L15.1023 3.83526ZM15.5001 4C15.3509 4 15.2078 3.94075 15.1023 3.83526L16.5165 2.42101C16.2469 2.15144 15.8813 2 15.5001 2V4ZM15.8978 3.83526C15.7923 3.94075 15.6492 4 15.5001 4V2C15.1188 2 14.7532 2.15144 14.4836 2.42101L15.8978 3.83526ZM16.0626 3.43749C16.0626 3.58669 16.0033 3.72977 15.8978 3.83526L14.4836 2.42101C14.214 2.69059 14.0626 3.05622 14.0626 3.43749H16.0626ZM15.8978 3.03972C16.0033 3.1452 16.0626 3.28828 16.0626 3.43749H14.0626C14.0626 3.81875 14.214 4.18438 14.4836 4.45396L15.8978 3.03972ZM15.5001 2.87498C15.6492 2.87498 15.7923 2.93423 15.8978 3.03972L14.4836 4.45396C14.7532 4.72354 15.1188 4.87498 15.5001 4.87498V2.87498ZM15.1023 3.03972C15.2078 2.93423 15.3509 2.87498 15.5001 2.87498V4.87498C15.8813 4.87498 16.2469 4.72354 16.5165 4.45396L15.1023 3.03972ZM14.0894 5.6932C14.1853 5.52965 14.2479 5.34876 14.2736 5.16092L12.292 4.88997C12.3021 4.81647 12.3266 4.74568 12.3641 4.68168L14.0894 5.6932ZM13.2168 6.35592C13.5837 6.2589 13.8975 6.02067 14.0894 5.6932L12.3641 4.68168C12.4392 4.55353 12.562 4.46031 12.7056 4.42235L13.2168 6.35592ZM12.1306 6.21108C12.4593 6.40087 12.8498 6.45294 13.2168 6.35592L12.7056 4.42235C12.8492 4.38439 13.0019 4.40476 13.1306 4.47903L12.1306 6.21108ZM11.4621 5.34283C11.5615 5.70917 11.8019 6.02129 12.1306 6.21108L13.1306 4.47902C13.2592 4.55329 13.3533 4.67542 13.3922 4.81879L11.4621 5.34283ZM11.5997 4.25568C11.4121 4.58567 11.3626 4.97648 11.4621 5.34283L13.3922 4.81879C13.4311 4.96215 13.4117 5.11509 13.3383 5.24422L11.5997 4.25568ZM11.9686 3.83009C11.8188 3.94624 11.6934 4.09087 11.5997 4.25568L13.3383 5.24422C13.3016 5.30871 13.2526 5.36531 13.194 5.41076L11.9686 3.83009ZM12.4727 3.57891C12.2898 3.62858 12.1184 3.71394 11.9686 3.83009L13.194 5.41076C13.1353 5.45621 13.0683 5.48961 12.9967 5.50905L12.4727 3.57891ZM13.0346 3.54068C12.8466 3.51625 12.6557 3.52924 12.4727 3.57891L12.9967 5.50905C12.9251 5.52848 12.8504 5.53356 12.7768 5.524L13.0346 3.54068ZM13.5681 3.72128C13.4039 3.62649 13.2226 3.56512 13.0346 3.54068L12.7768 5.524C12.7033 5.51444 12.6323 5.49043 12.5681 5.45334L13.5681 3.72128ZM13.9912 4.09298C13.8761 3.94239 13.7323 3.81607 13.5681 3.72128L12.5681 5.45334C12.5039 5.41625 12.4476 5.36682 12.4025 5.30789L13.9912 4.09298ZM14.2391 4.59874C14.1906 4.41546 14.1064 4.24358 13.9912 4.09299L12.4025 5.30789C12.3575 5.24896 12.3245 5.1817 12.3055 5.10997L14.2391 4.59874ZM14.2736 5.16093C14.2993 4.97309 14.2876 4.78203 14.2391 4.59875L12.3055 5.10997C12.2866 5.03825 12.282 4.96348 12.292 4.88997L14.2736 5.16093ZM12.4375 7.06241C12.2883 7.06241 12.1453 7.00316 12.0398 6.89767L13.454 5.48343C13.1844 5.21385 12.8187 5.06241 12.4375 5.06241V7.06241ZM12.8352 6.89767C12.7297 7.00316 12.5867 7.06241 12.4375 7.06241V5.06241C12.0563 5.06241 11.6906 5.21385 11.4211 5.48343L12.8352 6.89767ZM13 6.4999C13 6.6491 12.9407 6.79219 12.8352 6.89767L11.4211 5.48343C11.1515 5.753 11 6.11864 11 6.4999H13ZM12.8352 6.10213C12.9407 6.20762 13 6.3507 13 6.4999H11C11 6.88116 11.1515 7.2468 11.4211 7.51638L12.8352 6.10213ZM12.4375 5.93739C12.5867 5.93739 12.7297 5.99664 12.8352 6.10213L11.4211 7.51637C11.6906 7.78595 12.0563 7.93739 12.4375 7.93739V5.93739ZM12.0398 6.10213C12.1453 5.99664 12.2883 5.93739 12.4375 5.93739V7.93739C12.8187 7.93739 13.1844 7.78595 13.454 7.51637L12.0398 6.10213ZM11.875 6.4999C11.875 6.3507 11.9343 6.20762 12.0398 6.10213L13.454 7.51638C13.7236 7.2468 13.875 6.88116 13.875 6.4999H11.875ZM12.0398 6.89767C11.9343 6.79219 11.875 6.6491 11.875 6.4999H13.875C13.875 6.11864 13.7236 5.753 13.454 5.48343L12.0398 6.89767ZM14.6818 5.09604C14.8466 5.00235 14.9912 4.87698 15.1074 4.72715L13.5268 3.50174C13.5722 3.44311 13.6288 3.39405 13.6933 3.35739L14.6818 5.09604ZM13.5947 5.23367C13.961 5.33312 14.3518 5.28365 14.6818 5.09604L13.6933 3.35739C13.8224 3.28398 13.9753 3.26462 14.1187 3.30354L13.5947 5.23367ZM12.7264 4.56518C12.9162 4.89391 13.2283 5.13422 13.5947 5.23367L14.1187 3.30354C14.262 3.34245 14.3841 3.43648 14.4584 3.56512L12.7264 4.56518ZM12.5815 3.47896C12.4845 3.84596 12.5366 4.23644 12.7264 4.56518L14.4584 3.56512C14.5327 3.69376 14.5531 3.84657 14.5151 3.99019L12.5815 3.47896ZM13.2443 2.60629C12.9168 2.79826 12.6786 3.11197 12.5815 3.47896L14.5151 3.99019C14.4771 4.13381 14.3839 4.25656 14.2558 4.33168L13.2443 2.60629ZM13.7766 2.42216C13.5887 2.44784 13.4078 2.51042 13.2443 2.60629L14.2558 4.33168C14.1918 4.36919 14.121 4.39368 14.0475 4.40373L13.7766 2.42216ZM14.3387 2.45666C14.1554 2.40821 13.9644 2.39648 13.7766 2.42216L14.0475 4.40373C13.974 4.41378 13.8992 4.40919 13.8275 4.39023L14.3387 2.45666ZM14.8445 2.70449C14.6939 2.58934 14.522 2.50511 14.3387 2.45666L13.8275 4.39023C13.7558 4.37127 13.6886 4.33831 13.6296 4.29326L14.8445 2.70449ZM15.2162 3.12762C15.1214 2.96345 14.9951 2.81964 14.8445 2.70449L13.6296 4.29326C13.5707 4.2482 13.5213 4.19193 13.4842 4.12768L15.2162 3.12762ZM15.3968 3.66111C15.3724 3.47311 15.311 3.2918 15.2162 3.12762L13.4842 4.12768C13.4471 4.06343 13.4231 3.99248 13.4135 3.91891L15.3968 3.66111ZM15.3586 4.22304C15.4083 4.04009 15.4212 3.84911 15.3968 3.66111L13.4135 3.91891C13.4039 3.84534 13.409 3.7706 13.4285 3.69901L15.3586 4.22304ZM15.1074 4.72715C15.2235 4.57733 15.3089 4.406 15.3586 4.22305L13.4285 3.699C13.4479 3.62741 13.4813 3.56037 13.5268 3.50174L15.1074 4.72715Z" fill="black" mask="url(#path-2-inside-1_1317_2716)"/>
</svg>
