<svg width="24" height="24" viewBox="0 0 24 24" fill="none" xmlns="http://www.w3.org/2000/svg">
<g id="clarity:employee-group-solid">
<g id="clarityEmployeeGroupSolid0">
<path id="Vector" d="M11.6667 10.9599C13.4193 10.9599 14.84 9.55711 14.84 7.82662C14.84 6.09612 13.4193 4.69328 11.6667 4.69328C9.9141 4.69328 8.49335 6.09612 8.49335 7.82662C8.49335 9.55711 9.9141 10.9599 11.6667 10.9599Z" fill="#6A6A6A"/>
<path id="Vector_2" d="M6.85335 8.13995H7.17335V7.85328C7.17529 7.01968 7.41047 6.20325 7.85228 5.49636C8.29408 4.78947 8.92489 4.22031 9.67335 3.85328C9.45177 3.34299 9.09612 2.90223 8.64417 2.57784C8.19222 2.25344 7.66084 2.05751 7.10648 2.01085C6.55212 1.9642 5.99547 2.06856 5.49566 2.31286C4.99585 2.55716 4.57153 2.93227 4.26779 3.39835C3.96404 3.86443 3.7922 4.40408 3.77052 4.95998C3.74884 5.51588 3.87813 6.06727 4.14466 6.55559C4.41119 7.04391 4.805 7.45093 5.28427 7.73341C5.76354 8.01589 6.31037 8.16329 6.86668 8.15995L6.85335 8.13995ZM16.1733 7.82661V8.11328H16.4933C17.0422 8.10777 17.5795 7.95439 18.0486 7.66927C18.5177 7.38416 18.9012 6.97786 19.1589 6.49315C19.4165 6.00843 19.5387 5.46323 19.5126 4.91492C19.4865 4.36661 19.313 3.83547 19.0105 3.37742C18.708 2.91937 18.2876 2.55134 17.7936 2.31208C17.2995 2.07281 16.7501 1.97116 16.2032 2.01782C15.6562 2.06447 15.132 2.25771 14.6856 2.5772C14.2392 2.89669 13.8872 3.33061 13.6667 3.83328C14.4154 4.19888 15.0469 4.76659 15.4898 5.47226C15.9328 6.17794 16.1695 6.99344 16.1733 7.82661ZM14.5267 11.2733C15.8522 11.5356 17.1338 11.9846 18.3333 12.6066C18.5023 12.6994 18.6554 12.8187 18.7867 12.9599H22.3333V10.6799C22.334 10.5925 22.3107 10.5065 22.2661 10.4313C22.2214 10.3561 22.1571 10.2946 22.08 10.2533C20.3521 9.34949 18.43 8.8804 16.48 8.88661H16.04C15.809 9.82576 15.2776 10.6638 14.5267 11.2733ZM4.02001 14.2533C4.0188 13.9175 4.10947 13.5878 4.28221 13.2999C4.45496 13.012 4.70319 12.7769 5.00001 12.6199C6.19953 11.9979 7.48117 11.549 8.80668 11.2866C8.05939 10.6823 7.52836 9.85183 7.29335 8.91995H6.85335C4.90337 8.91374 2.98125 9.38283 1.25335 10.2866C1.17626 10.3279 1.11192 10.3895 1.06727 10.4647C1.02262 10.5399 0.999366 10.6258 1.00001 10.7133V14.9733H4.02001V14.2533ZM13.9733 18.0999H17.9467V19.0333H13.9733V18.0999Z" fill="#6A6A6A"/>
<path id="Vector_3" d="M21.54 14.4799H16.96V13.8133C16.96 13.6365 16.8898 13.4669 16.7647 13.3419C16.6397 13.2169 16.4702 13.1466 16.2933 13.1466C16.1165 13.1466 15.947 13.2169 15.8219 13.3419C15.6969 13.4669 15.6267 13.6365 15.6267 13.8133V14.4799H14.3333V12.5933C13.4562 12.4091 12.5629 12.3131 11.6667 12.3066C9.56252 12.2979 7.48842 12.8061 5.62668 13.7866C5.54375 13.8296 5.47434 13.8947 5.4261 13.9747C5.37786 14.0547 5.35268 14.1465 5.35335 14.2399V17.9799H10.0933V22.0399C10.0933 22.2168 10.1636 22.3863 10.2886 22.5114C10.4136 22.6364 10.5832 22.7066 10.76 22.7066H21.54C21.7168 22.7066 21.8864 22.6364 22.0114 22.5114C22.1364 22.3863 22.2067 22.2168 22.2067 22.0399V15.1466C22.2067 14.9698 22.1364 14.8002 22.0114 14.6752C21.8864 14.5502 21.7168 14.4799 21.54 14.4799ZM20.8733 21.3866H11.4267V15.8133H15.6267V16.4199C15.6267 16.5968 15.6969 16.7663 15.8219 16.8914C15.947 17.0164 16.1165 17.0866 16.2933 17.0866C16.4702 17.0866 16.6397 17.0164 16.7647 16.8914C16.8898 16.7663 16.96 16.5968 16.96 16.4199V15.8133H20.8733V21.3866Z" fill="#6A6A6A"/>
</g>
</g>
</svg>
