<svg width="24" height="24" viewBox="0 0 24 24" fill="none" xmlns="http://www.w3.org/2000/svg">
<g id="mingcute:department-fill">
<g id="Group">
<path id="Vector" d="M12.0001 3.75C11.3506 3.74904 10.7218 3.97794 10.225 4.39618C9.72813 4.81442 9.39535 5.395 9.28555 6.03509C9.17576 6.67518 9.29605 7.33348 9.62511 7.89338C9.95417 8.45328 10.4708 8.87866 11.0834 9.09417V11.0833H8.3334C7.60406 11.0833 6.90458 11.3731 6.38886 11.8888C5.87313 12.4045 5.5834 13.104 5.5834 13.8333V14.9058C4.97153 15.1221 4.45582 15.5477 4.1274 16.1074C3.79899 16.6671 3.67904 17.3249 3.78874 17.9646C3.89844 18.6042 4.23074 19.1844 4.72689 19.6027C5.22305 20.021 5.85111 20.2505 6.50007 20.2505C7.14903 20.2505 7.77709 20.021 8.27324 19.6027C8.7694 19.1844 9.10169 18.6042 9.21139 17.9646C9.3211 17.3249 9.20114 16.6671 8.87273 16.1074C8.54432 15.5477 8.0286 15.1221 7.41673 14.9058V13.8333C7.41673 13.5902 7.51331 13.3571 7.68522 13.1852C7.85713 13.0132 8.09029 12.9167 8.3334 12.9167H15.6667C15.9099 12.9167 16.143 13.0132 16.3149 13.1852C16.4868 13.3571 16.5834 13.5902 16.5834 13.8333V14.9058C15.9715 15.1221 15.4558 15.5477 15.1274 16.1074C14.799 16.6671 14.679 17.3249 14.7887 17.9646C14.8984 18.6042 15.2307 19.1844 15.7269 19.6027C16.223 20.021 16.8511 20.2505 17.5001 20.2505C18.149 20.2505 18.7771 20.021 19.2732 19.6027C19.7694 19.1844 20.1017 18.6042 20.2114 17.9646C20.3211 17.3249 20.2011 16.6671 19.8727 16.1074C19.5443 15.5477 19.0286 15.1221 18.4167 14.9058V13.8333C18.4167 13.104 18.127 12.4045 17.6113 11.8888C17.0956 11.3731 16.3961 11.0833 15.6667 11.0833H12.9167V9.09417C13.5283 8.8777 14.0437 8.45206 14.3718 7.89245C14.7 7.33284 14.8198 6.67525 14.7101 6.03586C14.6005 5.39646 14.2683 4.8164 13.7724 4.39813C13.2766 3.97986 12.6488 3.7503 12.0001 3.75Z" fill="#6A6A6A"/>
</g>
</g>
</svg>
