<svg width="24" height="24" viewBox="0 0 24 24" fill="none" xmlns="http://www.w3.org/2000/svg">
<path d="M10 20.35V14.65L11.4 10.65C11.4833 10.4667 11.6043 10.3127 11.763 10.188C11.9217 10.0633 12.1173 10.0007 12.35 10H19.65C19.8833 10 20.0793 10.0627 20.238 10.188C20.3967 10.3133 20.5173 10.4673 20.6 10.65L22 14.65V20.35C22 20.5333 21.9377 20.6877 21.813 20.813C21.6883 20.9383 21.534 21.0007 21.35 21H20.65C20.4667 21 20.3127 20.9377 20.188 20.813C20.0633 20.6883 20.0007 20.534 20 20.35V19.5H12V20.35C12 20.5333 11.9377 20.6877 11.813 20.813C11.6883 20.9383 11.534 21.0007 11.35 21H10.65C10.4667 21 10.3127 20.9377 10.188 20.813C10.0633 20.6883 10.0007 20.534 10 20.35ZM12 13.5H20L19.3 11.5H12.7L12 13.5ZM13 17.5C13.2833 17.5 13.521 17.404 13.713 17.212C13.905 17.02 14.0007 16.7827 14 16.5C14 16.2167 13.904 15.9793 13.712 15.788C13.52 15.5967 13.2827 15.5007 13 15.5C12.7167 15.5 12.4793 15.596 12.288 15.788C12.0967 15.98 12.0007 16.2173 12 16.5C12 16.7833 12.096 17.021 12.288 17.213C12.48 17.405 12.7173 17.5007 13 17.5ZM19 17.5C19.2833 17.5 19.521 17.404 19.713 17.212C19.905 17.02 20.0007 16.7827 20 16.5C20 16.2167 19.904 15.9793 19.712 15.788C19.52 15.5967 19.2827 15.5007 19 15.5C18.7167 15.5 18.4793 15.596 18.288 15.788C18.0967 15.98 18.0007 16.2173 18 16.5C18 16.7833 18.096 17.021 18.288 17.213C18.48 17.405 18.7173 17.5007 19 17.5ZM4 21V20L5 19C4.16667 19 3.45833 18.7083 2.875 18.125C2.29167 17.5417 2 16.8333 2 16V8C2 6.9 2.49167 6.125 3.475 5.675C4.45833 5.225 6.13333 5 8.5 5C10.9667 5 12.6667 5.21667 13.6 5.65C14.5333 6.08333 15 6.86667 15 8V9H13V8H4V14H9V21H4ZM5 17C5.28333 17 5.521 16.904 5.713 16.712C5.905 16.52 6.00067 16.2827 6 16C6 15.7167 5.904 15.4793 5.712 15.288C5.52 15.0967 5.28267 15.0007 5 15C4.71667 15 4.47933 15.096 4.288 15.288C4.09667 15.48 4.00067 15.7173 4 16C4 16.2833 4.096 16.521 4.288 16.713C4.48 16.905 4.71733 17.0007 5 17Z" fill="black"/>
<mask id="path-2-inside-1_1317_2699" fill="white">
<path fill-rule="evenodd" clip-rule="evenodd" d="M16 12C18.7614 12 21 9.76142 21 7C21 4.23858 18.7614 2 16 2C13.2386 2 11 4.23858 11 7C11 9.76142 13.2386 12 16 12ZM16.8182 8.25568L16.929 4.18182H15.6648L15.7784 8.25568H16.8182ZM15.8153 9.875C15.9498 10.0076 16.1108 10.0739 16.2983 10.0739C16.4195 10.0739 16.5312 10.0436 16.6335 9.98295C16.7358 9.92045 16.8182 9.83807 16.8807 9.7358C16.9451 9.63163 16.9782 9.51705 16.9801 9.39205C16.9782 9.20644 16.9091 9.04735 16.7727 8.91477C16.6364 8.7822 16.4782 8.71591 16.2983 8.71591C16.1108 8.71591 15.9498 8.7822 15.8153 8.91477C15.6809 9.04735 15.6146 9.20644 15.6165 9.39205C15.6146 9.57955 15.6809 9.74053 15.8153 9.875Z"/>
</mask>
<path fill-rule="evenodd" clip-rule="evenodd" d="M16 12C18.7614 12 21 9.76142 21 7C21 4.23858 18.7614 2 16 2C13.2386 2 11 4.23858 11 7C11 9.76142 13.2386 12 16 12ZM16.8182 8.25568L16.929 4.18182H15.6648L15.7784 8.25568H16.8182ZM15.8153 9.875C15.9498 10.0076 16.1108 10.0739 16.2983 10.0739C16.4195 10.0739 16.5312 10.0436 16.6335 9.98295C16.7358 9.92045 16.8182 9.83807 16.8807 9.7358C16.9451 9.63163 16.9782 9.51705 16.9801 9.39205C16.9782 9.20644 16.9091 9.04735 16.7727 8.91477C16.6364 8.7822 16.4782 8.71591 16.2983 8.71591C16.1108 8.71591 15.9498 8.7822 15.8153 8.91477C15.6809 9.04735 15.6146 9.20644 15.6165 9.39205C15.6146 9.57955 15.6809 9.74053 15.8153 9.875Z" fill="black"/>
<path d="M16.929 4.18182L17.9286 4.209L17.9565 3.18182H16.929V4.18182ZM16.8182 8.25568V9.25568H17.7914L17.8178 8.28287L16.8182 8.25568ZM15.6648 4.18182V3.18182H14.6365L14.6652 4.2097L15.6648 4.18182ZM15.7784 8.25568L14.7788 8.28357L14.8059 9.25568H15.7784V8.25568ZM15.8153 9.875L15.1082 10.5821L15.1133 10.5871L15.8153 9.875ZM16.6335 9.98295L17.1434 10.8433L17.155 10.8362L16.6335 9.98295ZM16.8807 9.7358L16.0301 9.20997L16.0274 9.21434L16.8807 9.7358ZM16.9801 9.39205L17.98 9.4072L17.9802 9.39452L17.9801 9.38184L16.9801 9.39205ZM16.7727 8.91477L16.0756 9.63177L16.0756 9.63177L16.7727 8.91477ZM15.8153 8.91477L16.5174 9.62688L16.5174 9.62688L15.8153 8.91477ZM15.6165 9.39205L16.6164 9.40215L16.6165 9.39199L16.6164 9.38184L15.6165 9.39205ZM20 7C20 9.20914 18.2091 11 16 11V13C19.3137 13 22 10.3137 22 7H20ZM16 3C18.2091 3 20 4.79086 20 7H22C22 3.68629 19.3137 1 16 1V3ZM12 7C12 4.79086 13.7909 3 16 3V1C12.6863 1 10 3.68629 10 7H12ZM16 11C13.7909 11 12 9.20914 12 7H10C10 10.3137 12.6863 13 16 13V11ZM15.9293 4.15463L15.8186 8.2285L17.8178 8.28287L17.9286 4.209L15.9293 4.15463ZM15.6648 5.18182H16.929V3.18182H15.6648V5.18182ZM16.778 8.2278L16.6644 4.15393L14.6652 4.2097L14.7788 8.28357L16.778 8.2278ZM16.8182 7.25568H15.7784V9.25568H16.8182V7.25568ZM16.2983 9.07386C16.325 9.07386 16.3684 9.07916 16.4177 9.09947C16.4669 9.11973 16.5002 9.14593 16.5174 9.1629L15.1133 10.5871C15.4334 10.9027 15.8459 11.0739 16.2983 11.0739V9.07386ZM16.1237 9.12266C16.1481 9.10823 16.1778 9.09508 16.2113 9.086C16.2446 9.07695 16.2747 9.07386 16.2983 9.07386V11.0739C16.5952 11.0739 16.8836 10.9972 17.1433 10.8432L16.1237 9.12266ZM16.0274 9.21434C16.0362 9.19998 16.0486 9.18347 16.0649 9.16718C16.0812 9.1509 16.0977 9.13845 16.1121 9.12967L17.155 10.8362C17.3926 10.691 17.5887 10.4949 17.734 10.2572L16.0274 9.21434ZM15.9802 9.3769C15.9806 9.35475 15.9839 9.32603 15.9932 9.29387C16.0026 9.26158 16.0158 9.23308 16.0301 9.20997L17.7313 10.2616C17.8927 10.0005 17.9754 9.70882 17.98 9.4072L15.9802 9.3769ZM16.0756 9.63177C16.0595 9.61604 16.0318 9.58303 16.0097 9.53205C15.9873 9.48058 15.9805 9.43364 15.9802 9.40225L17.9801 9.38184C17.9754 8.92241 17.792 8.51103 17.4698 8.19778L16.0756 9.63177ZM16.2983 9.71591C16.2622 9.71591 16.2146 9.70856 16.1653 9.68788C16.117 9.66763 16.0874 9.64322 16.0756 9.63177L17.4698 8.19778C17.1586 7.89518 16.7545 7.71591 16.2983 7.71591V9.71591ZM16.5174 9.62688C16.5002 9.64385 16.4669 9.67005 16.4177 9.6903C16.3684 9.71062 16.325 9.71591 16.2983 9.71591V7.71591C15.8459 7.71591 15.4334 7.88709 15.1133 8.20267L16.5174 9.62688ZM16.6164 9.38184C16.6168 9.41394 16.6107 9.46326 16.5878 9.51814C16.5651 9.57265 16.5358 9.60877 16.5174 9.62688L15.1133 8.20267C14.7894 8.52193 14.6118 8.94018 14.6165 9.40225L16.6164 9.38184ZM16.5224 9.16789C16.5399 9.18534 16.5679 9.22022 16.5895 9.27266C16.6112 9.32539 16.6167 9.37232 16.6164 9.40215L14.6165 9.38194C14.6119 9.84241 14.7868 10.2607 15.1082 10.5821L16.5224 9.16789Z" fill="black" mask="url(#path-2-inside-1_1317_2699)"/>
</svg>
