<svg width="25" height="24" viewBox="0 0 25 24" fill="none" xmlns="http://www.w3.org/2000/svg">
<path d="M14.7356 5.8672C14.7357 6.11248 14.6874 6.35538 14.5936 6.58202C14.4999 6.80866 14.3623 7.01461 14.189 7.18811C14.0156 7.3616 13.8097 7.49925 13.5831 7.59319C13.3565 7.68713 13.1137 7.73552 12.8684 7.7356C12.6231 7.73568 12.3802 7.68744 12.1536 7.59365C11.9269 7.49986 11.721 7.36234 11.5475 7.18896C11.374 7.01557 11.2363 6.80971 11.1424 6.58313C11.0485 6.35655 11.0001 6.11368 11 5.8684C10.9998 5.37303 11.1965 4.89788 11.5466 4.54749C11.8968 4.1971 12.3718 4.00016 12.8672 4C13.3626 3.99984 13.8377 4.19647 14.1881 4.54664C14.5385 4.89681 14.7354 5.37183 14.7356 5.8672Z" fill="#014471"/>
<path d="M12.8672 14.1448C13.8984 14.1448 14.7344 13.3088 14.7344 12.2776C14.7344 11.2464 13.8984 10.4104 12.8672 10.4104C11.836 10.4104 11 11.2464 11 12.2776C11 13.3088 11.836 14.1448 12.8672 14.1448Z" fill="#014471"/>
<path d="M12.8672 20.5564C13.8984 20.5564 14.7344 19.7204 14.7344 18.6892C14.7344 17.6579 13.8984 16.822 12.8672 16.822C11.836 16.822 11 17.6579 11 18.6892C11 19.7204 11.836 20.5564 12.8672 20.5564Z" fill="#014471"/>
</svg>
