<svg width="24" height="24" viewBox="0 0 24 24" fill="none" xmlns="http://www.w3.org/2000/svg">
<path d="M7 22C6.45 22 5.979 21.804 5.587 21.412C5.195 21.02 4.99933 20.5493 5 20C5 19.45 5.196 18.979 5.588 18.587C5.98 18.195 6.45067 17.9993 7 18C7.55 18 8.021 18.196 8.413 18.588C8.805 18.98 9.00067 19.4507 9 20C9 20.55 8.804 21.021 8.412 21.413C8.02 21.805 7.54933 22.0007 7 22ZM17 22C16.45 22 15.979 21.804 15.587 21.412C15.195 21.02 14.9993 20.5493 15 20C15 19.45 15.196 18.979 15.588 18.587C15.98 18.195 16.4507 17.9993 17 18C17.55 18 18.021 18.196 18.413 18.588C18.805 18.98 19.0007 19.4507 19 20C19 20.55 18.804 21.021 18.412 21.413C18.02 21.805 17.5493 22.0007 17 22ZM7 17C6.25 17 5.68333 16.6707 5.3 16.012C4.91667 15.3533 4.9 14.6993 5.25 14.05L6.6 11.6L3 4H1.975C1.69167 4 1.45833 3.904 1.275 3.712C1.09167 3.52 1 3.28267 1 3C1 2.71667 1.096 2.479 1.288 2.287C1.48 2.095 1.71733 1.99934 2 2H3.625C3.80833 2 3.98333 2.05 4.15 2.15C4.31667 2.25 4.44167 2.39167 4.525 2.575L5.2 4H19.95C20.4 4 20.7083 4.16667 20.875 4.5C21.0417 4.83334 21.0333 5.18334 20.85 5.55L17.3 11.95C17.1167 12.2833 16.875 12.5417 16.575 12.725C16.275 12.9083 15.9333 13 15.55 13H8.1L7 15H18.025C18.3083 15 18.5417 15.096 18.725 15.288C18.9083 15.48 19 15.7173 19 16C19 16.2833 18.904 16.521 18.712 16.713C18.52 16.905 18.2827 17.0007 18 17H7Z" fill="#5F5E5E"/>
</svg>
